<svg width="103" height="38" viewBox="0 0 103 38" fill="none" xmlns="http://www.w3.org/2000/svg">
<g filter="url(#filter0_d_17_43016)">
<rect x="1" y="1.90906" width="34.1818" height="34.1818" rx="8" fill="#4538CF"/>
<rect x="1" y="1.90906" width="34.1818" height="34.1818" rx="8" fill="url(#paint0_radial_17_43016)"/>
<rect x="1.5" y="2.40906" width="33.1818" height="33.1818" rx="7.5" stroke="white" stroke-opacity="0.24"/>
</g>
<g clip-path="url(#clip0_17_43016)">
<path fill-rule="evenodd" clip-rule="evenodd" d="M19.1626 10.1037C18.4303 9.74325 17.5696 9.74325 16.8374 10.1037L9.54405 13.6946C8.5964 14.1612 8.5964 15.5056 9.54405 15.9721L16.8374 19.563C17.5696 19.9235 18.4303 19.9235 19.1626 19.563L26.4559 15.9721C27.4036 15.5056 27.4036 14.1612 26.4559 13.6946L19.1626 10.1037ZM9.5859 17.8406C9.70195 17.7835 9.83795 17.7835 9.95399 17.8406L16.8374 21.2296C17.5696 21.5901 18.4303 21.5901 19.1626 21.2296L26.046 17.8406C26.162 17.7835 26.298 17.7835 26.4141 17.8406L26.4559 17.8612C27.4036 18.3278 27.4036 19.6722 26.4559 20.1388L19.1626 23.7296C18.4303 24.0901 17.5696 24.0901 16.8374 23.7296L9.54405 20.1388C8.5964 19.6722 8.5964 18.3278 9.54405 17.8612L9.5859 17.8406ZM9.95399 22.0074C9.83795 21.9502 9.70195 21.9502 9.5859 22.0074L9.54405 22.028C8.5964 22.4945 8.5964 23.839 9.54405 24.3055L16.8374 27.8964C17.5696 28.2569 18.4303 28.2569 19.1626 27.8964L26.4559 24.3055C27.4036 23.839 27.4036 22.4945 26.4559 22.028L26.4141 22.0074C26.298 21.9502 26.162 21.9502 26.046 22.0074L19.1626 25.3964C18.4303 25.7569 17.5696 25.7569 16.8374 25.3964L9.95399 22.0074Z" fill="white"/>
</g>
<path d="M47.5977 17L43.2277 5.32559H45.957L48.1657 11.2259C48.4339 11.9516 48.6547 12.6773 48.9071 13.687C49.2069 12.5669 49.4278 11.9201 49.6802 11.2259L51.8573 5.32559H54.5235L50.2324 17H47.5977ZM57.8441 17.2051C55.4619 17.2051 53.7581 15.4697 53.7581 13.0402C53.7581 10.5791 55.4146 8.85947 57.7968 8.85947C60.2737 8.85947 61.8197 10.4844 61.8197 13.0559V13.6712L56.093 13.7028C56.235 14.744 56.8187 15.2331 57.8915 15.2331C58.8065 15.2331 59.4533 14.9018 59.6268 14.3338H61.8513C61.5673 16.085 60.0055 17.2051 57.8441 17.2051ZM57.8126 10.8315C56.8502 10.8315 56.3138 11.2575 56.1245 12.204H59.406C59.406 11.3679 58.7907 10.8315 57.8126 10.8315ZM68.6855 9.11189V11.3994H67.9124C66.5241 11.3994 65.688 12.0147 65.688 13.5766V17H63.2585V9.12766H65.546L65.6722 10.2951C66.0035 9.52207 66.6977 9.00145 67.7547 9.00145C68.0387 9.00145 68.3542 9.03301 68.6855 9.11189ZM72.2016 17H69.9141V5.10473H72.3436V10.0269C72.8169 9.31698 73.8581 8.84369 74.994 8.84369C77.2027 8.84369 78.6068 10.5633 78.6068 13.1348C78.6068 15.5801 77.0449 17.2051 74.8047 17.2051C73.7003 17.2051 72.7538 16.716 72.3278 15.9903L72.2016 17ZM72.3594 13.0086C72.3594 14.1918 73.1482 14.9806 74.2841 14.9806C75.4357 14.9806 76.1614 14.1761 76.1614 13.0086C76.1614 11.8412 75.4357 11.0366 74.2841 11.0366C73.1482 11.0366 72.3594 11.8254 72.3594 13.0086ZM49.0176 29.119H46.8405V33H44.2847V21.3256H49.0176C51.3998 21.3256 52.9932 22.8874 52.9932 25.2223C52.9932 27.5572 51.3998 29.119 49.0176 29.119ZM48.4496 23.5974H46.8405V26.8473H48.4496C49.6802 26.8473 50.2955 26.3109 50.2955 25.2223C50.2955 24.1338 49.6802 23.5974 48.4496 23.5974ZM59.7343 25.1119V27.3994H58.9613C57.573 27.3994 56.7368 28.0147 56.7368 29.5766V33H54.3073V25.1277H56.5949L56.7211 26.2951C57.0524 25.5221 57.7465 25.0015 58.8035 25.0015C59.0875 25.0015 59.403 25.033 59.7343 25.1119ZM60.3058 29.0402C60.3058 26.5475 62.1359 24.8752 64.6601 24.8752C67.1685 24.8752 68.9985 26.5475 68.9985 29.0402C68.9985 31.5328 67.1685 33.1893 64.6601 33.1893C62.1359 33.1893 60.3058 31.5328 60.3058 29.0402ZM62.7512 29.0244C62.7512 30.2234 63.5242 31.0122 64.6601 31.0122C65.7802 31.0122 66.5532 30.2234 66.5532 29.0244C66.5532 27.8412 65.7802 27.0524 64.6601 27.0524C63.5242 27.0524 62.7512 27.8412 62.7512 29.0244ZM71.6218 23.8813C70.8488 23.8813 70.2335 23.2661 70.2335 22.493C70.2335 21.72 70.8488 21.1205 71.6218 21.1205C72.3791 21.1205 72.9944 21.72 72.9944 22.493C72.9944 23.2661 72.3791 23.8813 71.6218 23.8813ZM68.6401 36.8494L69.0345 34.7038C69.2712 34.7827 69.3974 34.7985 69.634 34.7985C70.2335 34.7985 70.4071 34.4672 70.4071 33.773V25.1119H72.8366V34.0886C72.8366 35.8555 71.7638 37.0387 69.8707 37.0387C69.5236 37.0387 69.2081 37.0229 68.6401 36.8494ZM78.3193 33.2051C75.9371 33.2051 74.2333 31.4697 74.2333 29.0402C74.2333 26.5791 75.8898 24.8595 78.272 24.8595C80.7489 24.8595 82.2949 26.4844 82.2949 29.0559V29.6712L76.5682 29.7028C76.7102 30.744 77.2939 31.2331 78.3667 31.2331C79.2817 31.2331 79.9285 30.9018 80.102 30.3338H82.3265C82.0425 32.085 80.4807 33.2051 78.3193 33.2051ZM78.2878 26.8315C77.3254 26.8315 76.789 27.2575 76.5997 28.204H79.8812C79.8812 27.3679 79.2659 26.8315 78.2878 26.8315ZM83.3077 29.0244C83.3077 26.5949 84.98 24.8595 87.3464 24.8595C89.6813 24.8595 91.2274 26.1373 91.3851 28.204H88.9398C88.7663 27.4152 88.2772 27.0366 87.4411 27.0366C86.4156 27.0366 85.753 27.8096 85.753 29.0244C85.753 30.2865 86.3683 31.028 87.4095 31.028C88.2614 31.028 88.7821 30.6336 88.9398 29.8605H91.3851C91.2274 31.8483 89.6182 33.2051 87.4095 33.2051C84.9169 33.2051 83.3077 31.5486 83.3077 29.0244ZM95.9024 33H93.4729V27.1312H91.9741V25.1119H93.4729V22.6666H95.9024V25.1119H97.4012V27.1312H95.9024V33Z" fill="#101828"/>
<defs>
<filter id="filter0_d_17_43016" x="0" y="0.909058" width="36.1818" height="36.1818" filterUnits="userSpaceOnUse" color-interpolation-filters="sRGB">
<feFlood flood-opacity="0" result="BackgroundImageFix"/>
<feColorMatrix in="SourceAlpha" type="matrix" values="0 0 0 0 0 0 0 0 0 0 0 0 0 0 0 0 0 0 127 0" result="hardAlpha"/>
<feMorphology radius="1" operator="dilate" in="SourceAlpha" result="effect1_dropShadow_17_43016"/>
<feOffset/>
<feComposite in2="hardAlpha" operator="out"/>
<feColorMatrix type="matrix" values="0 0 0 0 0.919852 0 0 0 0 0.9125 0 0 0 0 1 0 0 0 1 0"/>
<feBlend mode="normal" in2="BackgroundImageFix" result="effect1_dropShadow_17_43016"/>
<feBlend mode="normal" in="SourceGraphic" in2="effect1_dropShadow_17_43016" result="shape"/>
</filter>
<radialGradient id="paint0_radial_17_43016" cx="0" cy="0" r="1" gradientUnits="userSpaceOnUse" gradientTransform="translate(18.0909 1.90906) rotate(90) scale(34.1818)">
<stop stop-color="white" stop-opacity="0.3"/>
<stop offset="1" stop-color="white" stop-opacity="0"/>
</radialGradient>
<clipPath id="clip0_17_43016">
<rect width="20" height="20" fill="white" transform="translate(8 9)"/>
</clipPath>
</defs>
</svg>
