<svg width="142" height="32" viewBox="0 0 142 32" fill="none" xmlns="http://www.w3.org/2000/svg">
<path d="M140.153 22.6023C139.645 22.6023 139.209 22.4255 138.844 22.0719C138.485 21.7132 138.305 21.2838 138.305 20.7837C138.305 20.2886 138.485 19.8643 138.844 19.5107C139.209 19.157 139.645 18.9802 140.153 18.9802C140.645 18.9802 141.076 19.157 141.446 19.5107C141.815 19.8643 142 20.2886 142 20.7837C142 21.1171 141.913 21.4227 141.738 21.7006C141.569 21.9733 141.346 22.1931 141.069 22.3598C140.792 22.5215 140.486 22.6023 140.153 22.6023Z" fill="#101828"/>
<path d="M131.32 22.6326C130.104 22.6326 129.057 22.3901 128.179 21.9051C127.307 21.4151 126.635 20.723 126.163 19.8289C125.69 18.9297 125.454 17.8663 125.454 16.6388C125.454 15.4415 125.69 14.3908 126.163 13.4865C126.635 12.5823 127.299 11.8775 128.156 11.3724C129.018 10.8672 130.029 10.6146 131.189 10.6146C131.969 10.6146 132.695 10.7384 133.367 10.9859C134.045 11.2284 134.635 11.5947 135.138 12.0847C135.646 12.5747 136.041 13.191 136.323 13.9336C136.605 14.6711 136.746 15.535 136.746 16.5251V17.4117H126.763V15.4112H133.66C133.66 14.9464 133.557 14.5347 133.352 14.1761C133.147 13.8174 132.862 13.537 132.497 13.335C132.138 13.1278 131.72 13.0243 131.243 13.0243C130.745 13.0243 130.304 13.1379 129.919 13.3653C129.539 13.5875 129.241 13.8881 129.026 14.267C128.81 14.6408 128.7 15.0576 128.695 15.5173V17.4192C128.695 17.9951 128.803 18.4927 129.018 18.912C129.239 19.3313 129.549 19.6546 129.95 19.8819C130.35 20.1093 130.825 20.2229 131.374 20.2229C131.738 20.2229 132.072 20.1724 132.374 20.0714C132.677 19.9703 132.936 19.8188 133.152 19.6167C133.367 19.4147 133.531 19.1671 133.644 18.8741L136.677 19.0711C136.523 19.7885 136.208 20.4149 135.73 20.9504C135.258 21.4808 134.648 21.895 133.898 22.1931C133.154 22.4861 132.295 22.6326 131.32 22.6326Z" fill="#101828"/>
<path d="M125.285 10.7664L121.151 22.4054H117.457L113.323 10.7664H116.787L119.243 19.0941H119.366L121.813 10.7664H125.285Z" fill="#101828"/>
<path d="M109.007 22.4053V10.7663H112.286V22.4053H109.007ZM110.654 9.26591C110.166 9.26591 109.748 9.10679 109.399 8.78853C109.055 8.46522 108.884 8.07877 108.884 7.62917C108.884 7.18462 109.055 6.80322 109.399 6.48496C109.748 6.16165 110.166 6 110.654 6C111.141 6 111.557 6.16165 111.901 6.48496C112.25 6.80322 112.424 7.18462 112.424 7.62917C112.424 8.07877 112.25 8.46522 111.901 8.78853C111.557 9.10679 111.141 9.26591 110.654 9.26591Z" fill="#101828"/>
<path d="M107.521 10.7662V13.191H100.401V10.7662H107.521ZM102.018 7.97766H105.297V18.8287C105.297 19.1267 105.343 19.3591 105.435 19.5258C105.528 19.6875 105.656 19.8011 105.82 19.8668C105.989 19.9325 106.184 19.9653 106.405 19.9653C106.559 19.9653 106.713 19.9527 106.867 19.9274C107.021 19.8971 107.139 19.8744 107.221 19.8592L107.737 22.2613C107.572 22.3118 107.342 22.3699 107.044 22.4356C106.746 22.5063 106.385 22.5492 105.959 22.5644C105.168 22.5947 104.476 22.4911 103.88 22.2537C103.29 22.0163 102.831 21.6475 102.502 21.1474C102.174 20.6473 102.012 20.0158 102.018 19.253V7.97766Z" fill="#101828"/>
<path d="M94.5028 22.6326C93.2917 22.6326 92.25 22.38 91.3777 21.8748C90.5104 21.3646 89.8433 20.6574 89.3764 19.7531C88.9145 18.8489 88.6836 17.8082 88.6836 16.6312C88.6836 15.439 88.9171 14.3933 89.3841 13.4941C89.8562 12.5898 90.5258 11.8851 91.3931 11.38C92.2603 10.8697 93.2917 10.6146 94.4874 10.6146C95.5188 10.6146 96.422 10.799 97.1969 11.1678C97.9717 11.5366 98.585 12.0544 99.0365 12.7212C99.4881 13.388 99.737 14.171 99.7832 15.0702H96.6888C96.6016 14.4893 96.3707 14.022 95.9961 13.6684C95.6266 13.3097 95.1417 13.1304 94.5413 13.1304C94.0333 13.1304 93.5894 13.2668 93.2096 13.5395C92.835 13.8073 92.5425 14.1988 92.3321 14.7141C92.1217 15.2293 92.0165 15.8532 92.0165 16.5857C92.0165 17.3283 92.1192 17.9598 92.3244 18.4801C92.5348 19.0004 92.8299 19.397 93.2096 19.6698C93.5894 19.9426 94.0333 20.079 94.5413 20.079C94.9159 20.079 95.252 20.0032 95.5496 19.8516C95.8524 19.7001 96.1013 19.4803 96.2963 19.1924C96.4964 18.8994 96.6273 18.5483 96.6888 18.1391H99.7832C99.7319 19.0282 99.4856 19.8112 99.0442 20.4881C98.6081 21.16 98.0051 21.6854 97.2354 22.0643C96.4656 22.4431 95.5548 22.6326 94.5028 22.6326Z" fill="#101828"/>
<path d="M82.2445 22.6326C81.0284 22.6326 79.9815 22.3901 79.104 21.9051C78.2316 21.4151 77.5594 20.723 77.0873 19.8289C76.6152 18.9297 76.3792 17.8663 76.3792 16.6388C76.3792 15.4415 76.6152 14.3908 77.0873 13.4865C77.5594 12.5823 78.224 11.8775 79.0809 11.3724C79.943 10.8672 80.9539 10.6146 82.1137 10.6146C82.8937 10.6146 83.6198 10.7384 84.292 10.9859C84.9694 11.2284 85.5595 11.5947 86.0624 12.0847C86.5705 12.5747 86.9656 13.191 87.2478 13.9336C87.5301 14.6711 87.6712 15.535 87.6712 16.5251V17.4117H77.6877V15.4112H84.5845C84.5845 14.9464 84.4819 14.5347 84.2766 14.1761C84.0714 13.8174 83.7866 13.537 83.4222 13.335C83.063 13.1278 82.6448 13.0243 82.1676 13.0243C81.6698 13.0243 81.2285 13.1379 80.8436 13.3653C80.4639 13.5875 80.1662 13.8881 79.9507 14.267C79.7352 14.6408 79.6249 15.0576 79.6197 15.5173V17.4192C79.6197 17.9951 79.7275 18.4927 79.943 18.912C80.1637 19.3313 80.4741 19.6546 80.8744 19.8819C81.2747 20.1093 81.7493 20.2229 82.2984 20.2229C82.6628 20.2229 82.9963 20.1724 83.2991 20.0714C83.6018 19.9703 83.861 19.8188 84.0765 19.6167C84.292 19.4147 84.4562 19.1671 84.5691 18.8741L87.6019 19.0711C87.448 19.7885 87.1324 20.4149 86.6551 20.9504C86.183 21.4808 85.5724 21.895 84.8232 22.1931C84.0791 22.4861 83.2195 22.6326 82.2445 22.6326Z" fill="#101828"/>
<path d="M72.586 10.7663H75.8651L73.8022 22.9812C73.6483 23.8754 73.3429 24.6003 72.8862 25.156C72.4295 25.7167 71.8419 26.1259 71.1235 26.3835C70.4102 26.6412 69.5892 26.77 68.6604 26.77C68.5577 26.77 68.4551 26.7675 68.3525 26.7624C68.2498 26.7624 68.1395 26.7599 68.0215 26.7548L68.4448 24.2315C68.5218 24.2366 68.5962 24.2391 68.6681 24.2391C68.7399 24.2442 68.8092 24.2467 68.8759 24.2467C69.4044 24.2467 69.7944 24.1355 70.0459 23.9133C70.2973 23.691 70.4615 23.3626 70.5385 22.9282L72.586 10.7663ZM74.5334 9.26591C74.0459 9.26591 73.6457 9.10679 73.3327 8.78853C73.0196 8.46522 72.8913 8.07877 72.9478 7.62917C73.0042 7.17957 73.2249 6.79564 73.6098 6.47738C73.9946 6.15913 74.4283 6 74.9106 6C75.4033 6 75.8035 6.15913 76.1114 6.47738C76.4193 6.79564 76.5476 7.17957 76.4963 7.62917C76.445 8.07877 76.2269 8.46522 75.842 8.78853C75.4623 9.10679 75.0261 9.26591 74.5334 9.26591Z" fill="#101828"/>
<path d="M62.8277 22.5947C61.9297 22.5947 61.1163 22.3674 60.3876 21.9127C59.6641 21.453 59.0893 20.7786 58.6634 19.8895C58.2426 18.9954 58.0322 17.8991 58.0322 16.6009C58.0322 15.2672 58.2503 14.1584 58.6865 13.2743C59.1227 12.3852 59.7026 11.7209 60.4261 11.2814C61.1548 10.8369 61.9528 10.6146 62.82 10.6146C63.482 10.6146 64.0336 10.7258 64.4749 10.948C64.9214 11.1653 65.2806 11.438 65.5525 11.7664C65.8297 12.0897 66.04 12.408 66.1837 12.7212H66.2838V6.88647H69.5552V22.4052H66.3223V20.5412H66.1837C66.0298 20.8645 65.8117 21.1853 65.5295 21.5035C65.2524 21.8167 64.8906 22.0769 64.4441 22.284C64.0028 22.4911 63.464 22.5947 62.8277 22.5947ZM63.8668 20.0259C64.3954 20.0259 64.8418 19.8845 65.2062 19.6016C65.5756 19.3136 65.8579 18.912 66.0529 18.3967C66.253 17.8815 66.3531 17.2778 66.3531 16.5857C66.3531 15.8936 66.2556 15.2925 66.0606 14.7823C65.8656 14.272 65.5833 13.878 65.2139 13.6002C64.8444 13.3223 64.3954 13.1834 63.8668 13.1834C63.328 13.1834 62.8739 13.3274 62.5044 13.6153C62.1349 13.9033 61.8553 14.3023 61.6654 14.8126C61.4755 15.3228 61.3806 15.9138 61.3806 16.5857C61.3806 17.2626 61.4755 17.8613 61.6654 18.3816C61.8604 18.8969 62.1401 19.301 62.5044 19.594C62.8739 19.8819 63.328 20.0259 63.8668 20.0259Z" fill="#101828"/>
<path d="M46.2359 22.4052H42.6643L48.1063 6.88647H52.4015L57.8358 22.4052H54.2642L50.3155 10.4328H50.1923L46.2359 22.4052ZM46.0127 16.3053H54.449V18.8665H46.0127V16.3053Z" fill="#101828"/>
<rect width="32.5061" height="32" rx="6.00013" fill="#E61E2B"/>
<rect width="32.5061" height="32" rx="6.00013" fill="url(#paint0_radial_20_63812)"/>
<path fill-rule="evenodd" clip-rule="evenodd" d="M0 23.7714V25.7304C0 29.193 3.15888 31.9999 7.05558 31.9999H25.4505C29.3472 31.9999 32.5061 29.193 32.5061 25.7304V23.7714C32.5061 27.234 29.3472 30.0409 25.4505 30.0409H7.05558C3.15888 30.0409 0 27.234 0 23.7714Z" fill="black" fill-opacity="0.2"/>
<path d="M5.57275 21.9429L12.5869 14.8263L19.601 21.9429L19.7285 14.8263L12.5869 7.77148H19.856L26.9339 14.8263V21.9429H19.601H5.57275Z" fill="white"/>
<defs>
<radialGradient id="paint0_radial_20_63812" cx="0" cy="0" r="1" gradientUnits="userSpaceOnUse" gradientTransform="translate(16.253) rotate(90) scale(32 32.5061)">
<stop stop-color="white" stop-opacity="0.3"/>
<stop offset="1" stop-color="white" stop-opacity="0"/>
</radialGradient>
</defs>
</svg>
